<svg xmlns="http://www.w3.org/2000/svg" width="1200" height="300" viewBox="0 0 1200 300" role="img" aria-labelledby="title description">
  <title id="title">cucu0628</title>
  <desc id="description">A warm, ink-inspired banner about building thoughtful things for the desktop.</desc>
  <defs>
    <linearGradient id="background" x1="0" y1="0" x2="1" y2="1">
      <stop offset="0" stop-color="#171923"/>
      <stop offset="1" stop-color="#24202c"/>
    </linearGradient>
    <radialGradient id="glow">
      <stop offset="0" stop-color="#b77b74" stop-opacity=".22"/>
      <stop offset="1" stop-color="#b77b74" stop-opacity="0"/>
    </radialGradient>
    <pattern id="dots" width="22" height="22" patternUnits="userSpaceOnUse">
      <circle cx="1" cy="1" r="1" fill="#e6c6a8" opacity=".15"/>
    </pattern>
    <clipPath id="frame">
      <rect width="1200" height="300" rx="20"/>
    </clipPath>
  </defs>

  <g clip-path="url(#frame)">
    <rect width="1200" height="300" fill="url(#background)"/>
    <ellipse cx="950" cy="165" rx="330" ry="300" fill="url(#glow)"/>
    <rect x="680" y="0" width="520" height="300" fill="url(#dots)"/>
    <path d="M0 254 C200 227 371 288 570 253 S938 208 1200 258" fill="none" stroke="#d9a985" stroke-opacity=".12" stroke-width="2"/>
    <path d="M0 271 C200 244 371 305 570 270 S938 225 1200 275" fill="none" stroke="#d9a985" stroke-opacity=".08" stroke-width="2"/>

    <rect x="42" y="38" width="1116" height="224" rx="12" fill="none" stroke="#e6c6a8" stroke-opacity=".22"/>
    <circle cx="70" cy="65" r="4" fill="#eab69b"/>
    <circle cx="87" cy="65" r="4" fill="#c5a9ca"/>
    <circle cx="104" cy="65" r="4" fill="#a6baad"/>
    <text x="128" y="70" fill="#b8aaa8" font-size="15" font-family="ui-monospace, SFMono-Regular, Consolas, monospace">~/cucu0628</text>

    <text x="72" y="157" fill="#f5e8d8" font-size="72" font-weight="700" letter-spacing="-5" font-family="ui-monospace, SFMono-Regular, Consolas, monospace">cucu0628</text>
    <rect x="74" y="176" width="50" height="4" rx="2" fill="#eab69b"/>
    <text x="74" y="214" fill="#d5c1b9" font-size="19" font-family="ui-monospace, SFMono-Regular, Consolas, monospace">making Linux desktops feel like home</text>

    <rect x="790" y="75" width="305" height="152" rx="10" fill="#1b1b26" stroke="#deb89e" stroke-opacity=".45"/>
    <path d="M790 108 H1095" stroke="#deb89e" stroke-opacity=".25"/>
    <circle cx="812" cy="92" r="4" fill="#eab69b"/>
    <circle cx="827" cy="92" r="4" fill="#c5a9ca"/>
    <circle cx="842" cy="92" r="4" fill="#a6baad"/>
    <text x="875" y="96" fill="#b8aaa8" font-size="12" font-family="ui-monospace, SFMono-Regular, Consolas, monospace">workspace</text>
    <text x="814" y="137" fill="#eab69b" font-size="14" font-family="ui-monospace, SFMono-Regular, Consolas, monospace">01</text>
    <text x="851" y="137" fill="#e8ddcf" font-size="14" font-family="ui-monospace, SFMono-Regular, Consolas, monospace">vellum shell</text>
    <text x="814" y="168" fill="#c5a9ca" font-size="14" font-family="ui-monospace, SFMono-Regular, Consolas, monospace">02</text>
    <text x="851" y="168" fill="#e8ddcf" font-size="14" font-family="ui-monospace, SFMono-Regular, Consolas, monospace">hibiki</text>
    <text x="814" y="199" fill="#a6baad" font-size="14" font-family="ui-monospace, SFMono-Regular, Consolas, monospace">03</text>
    <text x="851" y="199" fill="#e8ddcf" font-size="14" font-family="ui-monospace, SFMono-Regular, Consolas, monospace">deskmate</text>
  </g>
</svg>
